<?xml version="1.0" encoding="UTF-8" standalone="no"?>
<svg width="190px" height="186px" viewBox="0 0 190 186" version="1.1" xmlns="http://www.w3.org/2000/svg" xmlns:xlink="http://www.w3.org/1999/xlink">
    <!-- Generator: Sketch 39.1 (31720) - http://www.bohemiancoding.com/sketch -->
    <title>Group 2</title>
    <desc>Created with Sketch.</desc>
    <defs></defs>
    <g id="Page-1" stroke="none" stroke-width="1" fill="none" fill-rule="evenodd">
        <g id="Group-2" fill="#FFFFFF">
            <g id="noun_289978_cc">
                <path d="M157.1,140.71 C155.862316,140.70027 154.831457,139.7582 154.710591,138.526393 C154.589725,137.294586 155.417812,136.170115 156.63,135.92 C165.922739,134.078847 175.000779,131.284057 183.72,127.58 L173.37,112.69 C172.926342,112.04928 172.818397,111.23411 173.08,110.5 L180.59,89.22 C175.531767,91.2657962 170.237234,92.6700567 164.83,93.4 C163.510039,93.6126296 162.26763,92.7149605 162.055,91.395 C161.84237,90.0750395 162.740039,88.8326297 164.06,88.62 C171.86,87.37 174.06,86.51 180.78,83.97 L183.78,82.84 C184.660074,82.5111086 185.650972,82.7213183 186.321711,83.3791999 C186.992451,84.0370815 187.221798,85.023726 186.91,85.91 L178.08,110.91 L189.41,127.2 C189.821074,127.79176 189.94708,128.53592 189.753736,129.230024 C189.560392,129.924128 189.06781,130.495979 188.41,130.79 C178.546998,135.229367 168.210351,138.530653 157.6,140.63 C157.436529,140.673794 157.268975,140.700603 157.1,140.71 L157.1,140.71 Z" id="Shape"></path>
                <path d="M5.32,135.6 C4.56296285,135.597417 3.85075423,135.240717 3.39527377,134.636028 C2.93979331,134.031338 2.79352971,133.248342 3,132.52 C3.05,132.34 8.06,114.65 10.84,105.18 C7.14,99.69 0.75,91.18 0.68,91.04 C0.260292722,90.4792908 0.10409672,89.7642445 0.251765893,89.0795966 C0.399435066,88.3949486 0.836484272,87.8078572 1.45,87.47 C4.67,85.7 15.81,79.84 24.03,78.47 C25.3499606,78.2546089 26.5946089,79.1500394 26.81,80.47 C27.0253911,81.7899606 26.1299606,83.0346089 24.81,83.25 C18.81,84.25 10.52,88.18 6.24,90.39 C8.61,93.6 12.92,99.5 15.5,103.39 C15.8871232,103.980923 15.99671,104.711502 15.8,105.39 C14,111.48 10.99,122.05 9.17,128.39 C16.2206692,125.13789 23.699413,122.908746 31.38,121.77 C32.6739831,121.616547 33.8571482,122.515216 34.0565008,123.802927 C34.2558535,125.090637 33.3998104,126.304999 32.12,126.55 C23.1333133,127.861059 14.4573539,130.784664 6.51,135.18 C6.15745905,135.42278 5.74683071,135.567708 5.32,135.6 L5.32,135.6 Z" id="Shape"></path>
                <path d="M134.49,136.53 C113.67,136.53 98.3,131.53 83.29,126.68 C65.66,121 49,115.57 24.78,119.33 C24.0837002,119.434748 23.376307,119.231031 22.8423666,118.771996 C22.3084262,118.312961 22.0008941,117.644134 22,116.94 L22,71.88 C22.001588,70.7067383 22.844542,69.703623 24,69.5 C53,63.99 71.12,69.67 90.32,75.68 C109.87,81.8 130.09,88.12 164.1,82.68 C164.799424,82.5687936 165.51246,82.7695474 166.051122,83.2293338 C166.589784,83.6891203 166.900006,84.3617908 166.9,85.07 L166.9,131 C166.89813,132.153857 166.081888,133.145905 164.95,133.37 C154.925192,135.42182 144.722511,136.480273 134.49,136.53 L134.49,136.53 Z M40.58,113.23 C57.48,113.23 70.83,117.56 84.78,122.08 C105.31,128.74 126.52,135.62 162.02,128.97 L162.02,87.88 C128.57,92.74 108.38,86.42 88.83,80.31 C70.67,74.63 53.5,69.25 26.83,73.91 L26.83,114.15 C31.3881398,113.540396 35.9812871,113.229732 40.58,113.22 L40.58,113.23 Z" id="Shape"></path>
                <path d="M31.74,126.69 C31.0907231,126.703834 30.4633422,126.455045 30,126 L22.67,118.67 C21.7849225,117.71606 21.8126798,116.232986 22.7328328,115.312833 C23.6529859,114.39268 25.1360602,114.364923 26.09,115.25 L33.42,122.58 C34.0935248,123.269879 34.2932856,124.293743 33.9284836,125.186205 C33.5636815,126.078667 32.7039226,126.669442 31.74,126.69 L31.74,126.69 Z" id="Shape"></path>
                <path d="M157.11,140.71 C156.131946,140.709032 155.250626,140.11943 154.876472,139.215771 C154.502318,138.312112 154.708895,137.272073 155.4,136.58 L162.73,129.25 C163.68394,128.364923 165.167014,128.39268 166.087167,129.312833 C167.00732,130.232986 167.035077,131.71606 166.15,132.67 L158.82,140 C158.367278,140.454918 157.751801,140.710467 157.11,140.71 L157.11,140.71 Z" id="Shape"></path>
                <path d="M104.6,70.88 C104.36973,70.8791886 104.140755,70.8455157 103.92,70.78 L88.92,66.37 C87.8895545,66.0682984 87.1811088,65.1237042 87.18,64.05 L87.18,37.58 C87.18,36.2434709 88.2634709,35.16 89.6,35.16 C90.9365291,35.16 92.02,36.2434709 92.02,37.58 L92.02,62.24 L102.2,65.24 L102.2,43.7 C102.2,42.3634709 103.283471,41.28 104.62,41.28 C105.956529,41.28 107.04,42.3634709 107.04,43.7 L107.04,68.46 C107.040022,69.1053042 106.782315,69.7238911 106.324142,70.1783085 C105.865969,70.6327258 105.245282,70.8853331 104.6,70.88 L104.6,70.88 Z" id="Shape"></path>
                <path d="M104.6,44.06 C103.263471,44.06 102.18,42.9765291 102.18,41.64 L102.18,10.33 C102.18,7.51887062 99.9011294,5.24 97.09,5.24 C94.2788706,5.24 92,7.51887062 92,10.33 L92,37.58 C92,38.9165291 90.9165291,40 89.58,40 C88.2434709,40 87.16,38.9165291 87.16,37.58 L87.16,10.33 C87.045048,6.70901237 88.9111987,3.31278389 92.0293087,1.46829061 C95.1474186,-0.376202676 99.0225814,-0.376202676 102.140691,1.46829061 C105.258801,3.31278389 107.124952,6.70901237 107.01,10.33 L107.01,41.65 C107.004521,42.97873 105.92873,44.0545206 104.6,44.06 L104.6,44.06 Z" id="Shape"></path>
                <path d="M97.09,66.83 C95.7534709,66.83 94.67,65.7465291 94.67,64.41 L94.67,48.72 C94.67,47.3834709 95.7534709,46.3 97.09,46.3 C98.4265291,46.3 99.51,47.3834709 99.51,48.72 L99.51,64.41 C99.51,65.0518239 99.2550364,65.6673604 98.8011984,66.1211984 C98.3473604,66.5750364 97.7318239,66.83 97.09,66.83 L97.09,66.83 Z" id="Shape"></path>
                <path d="M117.45,45.79 C113.45,45.79 104.98,43.16 96,40.37 C91.94,39.11 87.58,37.76 83.94,36.77 C84.2156641,37.1735212 84.3621402,37.6513125 84.36,38.14 C84.36,42.3649783 80.9349783,45.79 76.71,45.79 C72.4850217,45.79 69.06,42.3649783 69.06,38.14 C69.06,33.9150217 72.4850217,30.49 76.71,30.49 C80.49,30.49 88.71,33.04 97.43,35.75 C101.76,37.09 106.43,38.54 110.25,39.56 C109.950256,39.1472745 109.789195,38.6500865 109.79,38.14 C109.790004,33.9163242 113.212996,30.4918452 117.436671,30.4900073 C121.660346,30.4881693 125.086318,33.9096679 125.089997,38.133342 C125.093677,42.3570162 121.673672,45.7844789 117.45,45.79 L117.45,45.79 Z M113.28,40.31 C114.645343,40.6610624 116.042219,40.875451 117.45,40.95 C119.00192,40.95 120.26,39.6919201 120.26,38.14 C120.26,36.5880799 119.00192,35.33 117.45,35.33 C115.89808,35.33 114.64,36.5880799 114.64,38.14 C114.64359,39.0649473 114.119634,39.9110396 113.29,40.32 L113.28,40.31 Z M76.72,35.31 C75.1680799,35.31 73.91,36.5680799 73.91,38.12 C73.91,39.6719201 75.1680799,40.93 76.72,40.93 C78.2719201,40.93 79.53,39.6719201 79.53,38.12 C79.5432234,37.223347 80.0511935,36.4075163 80.85,36 C79.5024372,35.6398734 78.1222354,35.4154231 76.73,35.33 L76.72,35.31 Z" id="Shape"></path>
                <path d="M89.58,40.25 C88.6019457,40.2490321 87.7206262,39.6594298 87.346472,38.7557707 C86.9723177,37.8521116 87.1788947,36.8120727 87.87,36.12 L102.26,21.73 C103.21394,20.8449225 104.697014,20.8726798 105.617167,21.7928328 C106.53732,22.7129859 106.565077,24.1960602 105.68,25.15 L91.29,39.54 C90.8372777,39.9949183 90.2218005,40.2504673 89.58,40.25 L89.58,40.25 Z" id="Shape"></path>
                <path d="M104,40.25 C103.358199,40.2504673 102.742722,39.9949183 102.29,39.54 L87.87,25.15 C86.9849225,24.1960602 87.0126798,22.7129859 87.9328328,21.7928328 C88.8529859,20.8726798 90.3360602,20.8449225 91.29,21.73 L105.68,36.12 C106.367401,36.8081919 106.575961,37.8410662 106.209453,38.7420655 C105.842944,39.6430647 104.972605,40.2370647 104,40.25 L104,40.25 Z" id="Shape"></path>
                <path d="M89.58,27 C88.6019457,26.9990321 87.7206262,26.4094298 87.346472,25.5057707 C86.9723177,24.6021116 87.1788947,23.5620727 87.87,22.87 L102.26,8.48 C103.21394,7.59492254 104.697014,7.6226798 105.617167,8.54283283 C106.53732,9.46298586 106.565077,10.9460602 105.68,11.9 L91.29,26.26 C90.8422607,26.7259449 90.2261578,26.9925625 89.58,27 L89.58,27 Z" id="Shape"></path>
                <path d="M104,27 C103.358199,27.0004673 102.742722,26.7449183 102.29,26.29 L87.87,11.87 C86.9849225,10.9160602 87.0126798,9.43298586 87.9328328,8.51283283 C88.8529859,7.5926798 90.3360602,7.56492254 91.29,8.45 L105.68,22.84 C106.388895,23.5252253 106.611218,24.5720021 106.242022,25.4862013 C105.872826,26.4004006 104.985934,26.9992247 104,27 L104,27 Z" id="Shape"></path>
                <path d="M114.83,74.67 C114.585813,74.6700211 114.343041,74.632931 114.11,74.56 L78.63,63.5 C77.3775142,63.0847196 76.6885863,61.7426165 77.0812396,60.4828539 C77.4738929,59.2230913 78.8033693,58.5101012 80.07,58.88 L115.56,69.94 C116.7029,70.2968533 117.41304,71.4358283 117.230416,72.619134 C117.047792,73.8024397 116.027308,74.6743203 114.83,74.67 L114.83,74.67 Z" id="Shape"></path>
                <path d="M97.09,185.6 C96.285225,185.594954 95.5356121,185.190163 95.09,184.52 L87.58,173.26 C87.314171,172.863543 87.1715227,172.397327 87.17,171.92 L87.17,139.83 C87.17,138.493471 88.2534709,137.41 89.59,137.41 C90.9265291,137.41 92.01,138.493471 92.01,139.83 L92.01,171.18 L97.1,178.81 L102.19,171.18 L102.19,144.67 C102.19,143.333471 103.273471,142.25 104.61,142.25 C105.946529,142.25 107.03,143.333471 107.03,144.67 L107.03,171.92 C107.029076,172.397417 106.886376,172.863803 106.62,173.26 L99.11,184.52 C98.660455,185.196046 97.9018662,185.601628 97.09,185.6 L97.09,185.6 Z" id="Shape"></path>
                <path d="M97.09,185.6 C95.7534709,185.6 94.67,184.516529 94.67,183.18 L94.67,142.06 C94.67,140.723471 95.7534709,139.64 97.09,139.64 C98.4265291,139.64 99.51,140.723471 99.51,142.06 L99.51,183.18 C99.51,183.821824 99.2550364,184.43736 98.8011984,184.891198 C98.3473604,185.345036 97.7318239,185.6 97.09,185.6 L97.09,185.6 Z" id="Shape"></path>
                <path d="M114.83,149.09 C114.60692,149.090312 114.384851,149.06003 114.17,149 L78.69,138.9 C77.8186645,138.699959 77.1285929,138.035831 76.8953258,137.172796 C76.6620588,136.309762 76.9235996,135.388425 77.5755169,134.776669 C78.2274342,134.164912 79.1635193,133.962403 80.01,134.25 L115.49,144.35 C116.637588,144.690263 117.364017,145.818371 117.198943,147.003903 C117.033869,148.189436 116.02689,149.076184 114.83,149.09 L114.83,149.09 Z" id="Shape"></path>
            </g>
            <g id="Group" transform="translate(27.000000, 79.000000)" font-weight="bold" font-family="PTSans-Bold, PT Sans" line-spacing="20" letter-spacing="1.27272725" font-size="14">
                <text id="СЛОВО">
                    <tspan x="43.4571819" y="13">СЛОВO</tspan>
                </text>
            </g>
            <g id="Group-Copy" transform="translate(27.000000, 102.000000)" font-weight="bold" font-family="PTSans-Bold, PT Sans" line-spacing="20" letter-spacing="1.27272725" font-size="14">
                <text id="ХРИСТИАНИНА">
                    <tspan x="17.4140001" y="13">ХРИСТИАНИНА</tspan>
                </text>
            </g>
        </g>
    </g>
</svg>